<svg xmlns="http://www.w3.org/2000/svg" xmlns:xlink="http://www.w3.org/1999/xlink" width="80" height="80" viewBox="0 0 80 80">
  <defs>
    <clipPath id="clip-path">
      <rect id="Rectangle_14183" data-name="Rectangle 14183" width="50" height="42.91" fill="#fff"/>
    </clipPath>
  </defs>
  <g id="Group_52000" data-name="Group 52000" transform="translate(-889 -611)">
    <circle id="Ellipse_512" data-name="Ellipse 512" cx="40" cy="40" r="40" transform="translate(889 611)" fill="#0b0b0b"/>
    <g id="Group_49903" data-name="Group 49903" transform="translate(904 629.545)" opacity="0.9">
      <g id="Group_49902" data-name="Group 49902" transform="translate(0 0)" clip-path="url(#clip-path)">
        <path id="Path_74122" data-name="Path 74122" d="M16.964,33.356c0-2.63-.013-5.26.005-7.89a10.007,10.007,0,0,0-.637-3.628,28.55,28.55,0,0,1-1.96-10.712c.011-.537-.171-.687-.692-.619q-1.6.208-3.214.329c-.4.03-.453.4-.682.546-1.232.814-.7,1.822-.391,2.825.923,2.986,1.853,5.971,2.744,8.967.162.545.395.821.976.731a2.621,2.621,0,0,1,.394,0c1.707-.005,1.707-.005,1.534,1.738A7.545,7.545,0,0,1,.008,24.521c.022-.488.2-.606.658-.632.694-.039,1.556.333,2.038-.18a4.944,4.944,0,0,0,.677-1.9c.9-2.939,1.789-5.88,2.695-8.817a.917.917,0,0,0-.225-1.1,2.5,2.5,0,1,1,3.818-3.2.9.9,0,0,0,.969.448C11.708,9,12.78,8.886,13.853,8.8c.424-.036.6-.2.6-.633,0-.631.027-1.263.076-1.891a2.865,2.865,0,0,1,3.506-2.786c.527.095.652-.034.8-.488a2.832,2.832,0,0,1,3.852-1.807.707.707,0,0,0,.924-.218,2.86,2.86,0,0,1,4.6.4.588.588,0,0,0,.8.3A2.9,2.9,0,0,1,32.811,4.42c.03.544-.24,1.292.13,1.57.3.226.867-.4,1.358-.573A7.066,7.066,0,0,1,36.314,5.1c.484-.022.653.178.627.652-.043.787-.028,1.578-.068,2.365-.024.46.132.683.614.692a10.882,10.882,0,0,1,1.255.12,2.043,2.043,0,0,0,2.146-.654,2.372,2.372,0,0,1,3.456.106,2.421,2.421,0,0,1-.019,3.47,1.115,1.115,0,0,0-.305,1.42q1.558,4.963,3.037,9.949c.151.5.36.77.922.694A7.391,7.391,0,0,1,49,23.9c1.025,0,1.025,0,.985,1.062a7.536,7.536,0,0,1-15.068-.316c0-.582.159-.765.755-.761,1.952.013,1.966-.006,2.547-1.881.932-3.011,1.835-6.03,2.772-9.04.141-.452-.055-.713-.228-1.109-.583-1.338-1.737-1.2-2.819-1.317-.157-.017-.318,0-.472-.034-.49-.095-.652.109-.643.591.018.973.008,1.947-.018,2.919a5.13,5.13,0,0,1-1.755,3.826c-.526.474-1.014.992-1.509,1.5-2.112,2.17-2.727,4.867-2.888,7.788-.274,4.964-.412,9.931-.46,14.9,0,.284.18.723-.218.817a3.8,3.8,0,0,1-1.327-.005c-.214-.028-.151-.3-.149-.477a169.4,169.4,0,0,1,.8-18.431c.3-2.5,1.8-4.38,3.388-6.195a2.3,2.3,0,0,1,.387-.393,5.031,5.031,0,0,0,2.06-4.889c-.1-1.6-.009-3.207.041-4.811.02-.657-.183-.748-.714-.435A4.2,4.2,0,0,0,32.264,10.8c-.036.706.2,1.554-.118,2.083-.3.5-1.241.351-1.888.545a12.206,12.206,0,0,0-4.291,2.091c-.74.6-.873-.349-1.256-.6-.456-.3-.014-.53.2-.712a12.413,12.413,0,0,1,4.754-2.385c.2-.059.4-.117.607-.17a.357.357,0,0,0,.276-.416c-.011-.266-.2-.272-.39-.256a2.882,2.882,0,0,1-1.6-.312c-.285-.15-.418,0-.6.18-1.444,1.4-2.935,1.445-4.369.122a.551.551,0,0,0-.744-.145,2.709,2.709,0,0,1-3.036-.3.585.585,0,0,0-.821.014,2.536,2.536,0,0,1-2.258.381c-.679-.208-.679.1-.673.6a26,26,0,0,0,1.6,8.879,16.131,16.131,0,0,1,1.04,6.014c-.1,5.259-.145,10.519-.169,15.778,0,.734-.356.721-.875.712s-.879.03-.866-.717c.047-2.944.02-5.89.02-8.835h.162m-9.359-7.75c-1.735,0-3.47.009-5.2-.007-.492,0-.635.112-.5.641a5.847,5.847,0,0,0,11.272.107c.166-.617.022-.767-.6-.754-1.655.037-3.312.012-4.968.014m34.806,0c-1.657,0-3.314.04-4.968-.018-.756-.027-.749.266-.588.827a5.846,5.846,0,0,0,11.251-.179c.133-.516.024-.643-.489-.637-1.735.022-3.47.009-5.205.007M7.648,14.3H7.459q-1.4,4.579-2.806,9.157c-.119.39.12.443.422.442q2.48,0,4.96,0c.374,0,.538-.1.391-.513-.2-.568-.36-1.15-.536-1.726Q8.769,17.979,7.648,14.3M42.5,14.165a2.352,2.352,0,0,0-.179.318c-.906,2.958-1.8,5.921-2.723,8.873-.183.583.143.545.508.545,1.549,0,3.1-.02,4.645.011.61.012.712-.167.531-.735-.623-1.948-1.2-3.91-1.8-5.865-.313-1.019-.636-2.035-.984-3.147M26.931,5.956h.025c0-.943.007-1.887,0-2.83a1.224,1.224,0,1,0-2.421-.016q-.033,2.87-.02,5.739a1.222,1.222,0,0,0,1.195,1.367,1.243,1.243,0,0,0,1.22-1.351c.018-.969,0-1.939,0-2.909M22.8,6.11h.017c0-.735.018-1.47,0-2.2a1.211,1.211,0,0,0-1.16-1.244A1.188,1.188,0,0,0,20.407,3.9c-.036,1.416-.051,2.833-.032,4.249a1.185,1.185,0,0,0,1.2,1.283,1.232,1.232,0,0,0,1.22-1.275c.026-.681.005-1.365.005-2.047m5.863.116h-.016c0,.628-.036,1.259.009,1.884A1.185,1.185,0,0,0,29.89,9.274a1.12,1.12,0,0,0,1.169-1.135c.047-1.228.066-2.46.032-3.689a1.156,1.156,0,0,0-1.189-1.2A1.214,1.214,0,0,0,28.667,4.5c-.034.574-.007,1.152-.007,1.727m-9.971.931a7.163,7.163,0,0,0-.078-1.1,1.091,1.091,0,0,0-1.186-.925,1.078,1.078,0,0,0-1.13.9,6.523,6.523,0,0,0-.07,2.265,1.09,1.09,0,0,0,1.132,1A1.14,1.14,0,0,0,18.6,8.323a8.3,8.3,0,0,0,.092-1.167m24.645,2.985a.771.771,0,0,0-.808-.821.738.738,0,0,0-.8.855.8.8,0,0,0,1.6-.034M8.44,10.11a.786.786,0,0,0-.8-.794.755.755,0,0,0-.816.846.73.73,0,0,0,.821.752c.493,0,.746-.312.794-.8" transform="translate(0 0)" fill="#fff"/>
      </g>
    </g>
  </g>
</svg>
