<svg xmlns="http://www.w3.org/2000/svg" width="61" height="61" viewBox="0 0 61 61">
  <g id="Group_52308" data-name="Group 52308" transform="translate(-509 -3206)">
    <circle id="Ellipse_576" data-name="Ellipse 576" cx="30.5" cy="30.5" r="30.5" transform="translate(509 3206)" fill="#fff"/>
    <g id="Group_52223" data-name="Group 52223" transform="translate(523.631 3221.748)">
      <g id="Group_52224" data-name="Group 52224" transform="translate(0 0)">
        <path id="Path_78595" data-name="Path 78595" d="M53.243,38.8h2.225a3.9,3.9,0,0,1,3.9,3.9v6.665h-6.12Z" transform="translate(-28.628 -20.865)" fill="#e82b52"/>
        <path id="Path_78596" data-name="Path 78596" d="M23.9,6.325A6.325,6.325,0,1,1,17.578,0,6.325,6.325,0,0,1,23.9,6.325" transform="translate(-6.051 0)" fill="#e82b52"/>
        <path id="Path_78597" data-name="Path 78597" d="M0,45.964V37.883a5.41,5.41,0,0,1,5.41-5.41H17.645a5.41,5.41,0,0,1,5.41,5.41v8.081" transform="translate(0 -17.46)" fill="#e82b52"/>
        <path id="Path_78598" data-name="Path 78598" d="M56.246,18.266a4.272,4.272,0,1,1-4.271-4.271,4.271,4.271,0,0,1,4.271,4.271" transform="translate(-25.649 -7.525)" fill="#e82b52"/>
      </g>
    </g>
  </g>
</svg>
