<svg xmlns="http://www.w3.org/2000/svg" width="61" height="61" viewBox="0 0 61 61">
  <g id="Group_52307" data-name="Group 52307" transform="translate(-125 -3206)">
    <circle id="Ellipse_575" data-name="Ellipse 575" cx="30.5" cy="30.5" r="30.5" transform="translate(125 3206)" fill="#fff"/>
    <g id="Group_52220" data-name="Group 52220" transform="translate(138.347 3217.635)">
      <g id="Group_52221" data-name="Group 52221" transform="translate(0)">
        <path id="Path_78588" data-name="Path 78588" d="M89.928,0a1.259,1.259,0,0,1,.884,1.381c-.028.612,0,1.227-.007,1.841a1.122,1.122,0,0,1-1.119,1.2A1.106,1.106,0,0,1,88.6,3.236c0-.6.029-1.2-.009-1.8A1.318,1.318,0,0,1,89.412,0Z" transform="translate(-66.34)" fill="#cb3755"/>
        <path id="Path_78589" data-name="Path 78589" d="M37.173,24.613,50.88,38.324c-.734.154-1.485.311-2.221.53a24.071,24.071,0,0,0-8.338,4.457,1.54,1.54,0,0,0-.226.188c-.189.226-.325.165-.515-.026q-3.755-3.774-7.529-7.528c-.194-.193-.187-.293-.019-.5a23.44,23.44,0,0,0,5.075-10.59c.016-.084.044-.166.066-.246" transform="translate(-23.894 -18.433)" fill="#cb3755"/>
        <path id="Path_78590" data-name="Path 78590" d="M6.478,89.834a3.126,3.126,0,0,1-2.253-.875C3.108,87.872,2,86.779.919,85.653a3.222,3.222,0,0,1-.011-4.5c1.776-1.833,3.6-3.617,5.4-5.428.132-.133.2-.105.311.008q3.745,3.752,7.5,7.5c.121.121.136.192.006.321-1.82,1.808-3.626,3.629-5.454,5.428a3.05,3.05,0,0,1-2.193.85m-1.111-6.46a1.1,1.1,0,0,0,1.861.813q.8-.763,1.56-1.558a1.1,1.1,0,1,0-1.569-1.546c-.509.5-1.006,1-1.509,1.505a1.09,1.09,0,0,0-.344.786" transform="translate(0 -56.647)" fill="#cb3755"/>
        <path id="Path_78591" data-name="Path 78591" d="M56.873,1.184a2.358,2.358,0,0,1,1.665.743q3.613,3.625,7.236,7.24,3.658,3.658,7.314,7.318A2.209,2.209,0,0,1,70.2,19.829a3.52,3.52,0,0,1-.271-.249Q62.667,12.317,55.4,5.051a2.206,2.206,0,0,1,.413-3.589,2.278,2.278,0,0,1,1.056-.277" transform="translate(-40.94 -0.887)" fill="#cb3755"/>
        <path id="Path_78592" data-name="Path 78592" d="M57.149,105.154a3.288,3.288,0,0,1-.881,2.229c-.455.482-.925.951-1.4,1.411-.159.153-.184.239,0,.4.331.291.643.607.953.921a2.207,2.207,0,1,1-3.067,3.175c-1.633-1.561-3.247-3.143-4.875-4.709-.14-.135-.134-.206,0-.338q1.4-1.386,2.786-2.789c.156-.159.236-.121.371.014.61.6,1.236,1.195,1.844,1.8.151.151.237.184.4.008.411-.439.85-.851,1.27-1.282a1.1,1.1,0,0,0-.006-1.688c-.368-.378-.741-.753-1.119-1.121-.116-.112-.125-.18.012-.28q.74-.546,1.467-1.109c.127-.1.2-.069.3.035.366.381.753.741,1.108,1.131a3.3,3.3,0,0,1,.84,2.194" transform="translate(-35.776 -76.187)" fill="#cb3755"/>
        <path id="Path_78593" data-name="Path 78593" d="M106.248,12.208a1.138,1.138,0,0,1,.326-.884c.725-.731,1.449-1.463,2.185-2.183a1.1,1.1,0,0,1,1.581-.018,1.081,1.081,0,0,1,0,1.552q-1.1,1.137-2.236,2.235a1.1,1.1,0,0,1-1.857-.7" transform="translate(-79.568 -6.587)" fill="#cb3755"/>
        <path id="Path_78594" data-name="Path 78594" d="M117.246,35.2c.368,0,.736-.007,1.1,0a1.1,1.1,0,1,1,0,2.206c-.735.011-1.471.013-2.206,0a1.1,1.1,0,0,1,0-2.205c.368-.01.735,0,1.1,0" transform="translate(-86.16 -26.362)" fill="#cb3755"/>
      </g>
    </g>
  </g>
</svg>
