<svg xmlns="http://www.w3.org/2000/svg" width="61" height="61" viewBox="0 0 61 61">
  <g id="Group_52309" data-name="Group 52309" transform="translate(-893 -3205)">
    <circle id="Ellipse_577" data-name="Ellipse 577" cx="30.5" cy="30.5" r="30.5" transform="translate(893 3205)" fill="#fff"/>
    <g id="Group_52226" data-name="Group 52226" transform="translate(905.54 3216.778)">
      <g id="Group_52227" data-name="Group 52227">
        <path id="Path_78599" data-name="Path 78599" d="M65.345,157.7v-5.685a4.636,4.636,0,0,0-4.636-4.636H50.222a4.636,4.636,0,0,0-4.636,4.636V157.7Z" transform="translate(-37.506 -121.255)" fill="#e82b52"/>
        <path id="Path_78600" data-name="Path 78600" d="M79.445,76.863a6.008,6.008,0,1,1-6.008-6.008,6.008,6.008,0,0,1,6.008,6.008" transform="translate(-55.478 -58.296)" fill="#e82b52"/>
        <path id="Path_78601" data-name="Path 78601" d="M65.345,157.7v-5.685a4.636,4.636,0,0,0-4.636-4.636H50.222a4.636,4.636,0,0,0-4.636,4.636V157.7Z" transform="translate(-37.506 -121.255)" fill="#e82b52"/>
        <path id="Path_78602" data-name="Path 78602" d="M34.921,13.968H32.806a2.116,2.116,0,0,1-1.945-1.336l-.011-.026a2.116,2.116,0,0,1,.43-2.322l1.5-1.5a1,1,0,0,0,0-1.411L28.542,3.144a1,1,0,0,0-1.411,0l-1.5,1.5a2.116,2.116,0,0,1-2.323.43l-.027-.011a2.116,2.116,0,0,1-1.335-1.945V1a1,1,0,0,0-1-1H14.966a1,1,0,0,0-1,1V3.113a2.116,2.116,0,0,1-1.335,1.945l-.026.011a2.116,2.116,0,0,1-2.323-.43l-1.5-1.5a1,1,0,0,0-1.411,0L3.143,7.377a1,1,0,0,0,0,1.411l1.5,1.5a2.116,2.116,0,0,1,.43,2.323l-.011.026a2.116,2.116,0,0,1-1.945,1.335H1a1,1,0,0,0-1,1v5.987a1,1,0,0,0,1,1L8.717,21.4a9.869,9.869,0,1,1,18.448.1l6.932.453h.825a1,1,0,0,0,1-1V14.966a1,1,0,0,0-1-1" fill="#e82b52"/>
      </g>
    </g>
  </g>
</svg>
