<svg xmlns="http://www.w3.org/2000/svg" xmlns:xlink="http://www.w3.org/1999/xlink" width="74" height="74" viewBox="0 0 74 74">
  <defs>
    <clipPath id="clip-path">
      <rect id="Rectangle_14550" data-name="Rectangle 14550" width="46.875" height="49.538" fill="#f40f34"/>
    </clipPath>
  </defs>
  <g id="Group_52323" data-name="Group 52323" transform="translate(-238 -13957)">
    <circle id="Ellipse_487" data-name="Ellipse 487" cx="37" cy="37" r="37" transform="translate(238 13957)" fill="#e8e8e8"/>
    <g id="Group_50335" data-name="Group 50335" transform="translate(231.96 13950.674)">
      <g id="Group_50336" data-name="Group 50336" transform="translate(19.602 19.297)">
        <g id="Group_50333" data-name="Group 50333">
          <g id="Group_50332" data-name="Group 50332" clip-path="url(#clip-path)">
            <g id="Group_50331" data-name="Group 50331">
              <g id="Group_50330" data-name="Group 50330" clip-path="url(#clip-path)">
                <path id="Path_74621" data-name="Path 74621" d="M20.573.479A2.947,2.947,0,0,1,21.156.9q4.015,4.023,8.033,8.043a2.755,2.755,0,0,1,.2,3.874,2.7,2.7,0,0,1-3.782.287c-.741-.644-1.414-1.366-2.109-2.062a4.2,4.2,0,0,1-.309-.433.456.456,0,0,0-.17.487c-.005,2.37,0,4.74-.008,7.111,0,.3.013.5.409.539s.483-.122.559-.453c.238-1.035.507-2.063.767-3.093.237-.936.908-1.159,1.648-.547.619.511,1.233,1.028,1.881,1.568a13.848,13.848,0,0,1,1.664-3.048,13.081,13.081,0,0,1,11.349-5.6,13.242,13.242,0,0,1,2.629,26.088c-.414.1-.562.257-.555.7.029,1.822.022,3.644,0,5.466,0,.365.106.473.465.46a12.225,12.225,0,0,1,1.593.04,2.629,2.629,0,0,1-.141,5.24c-.515.026-1.032.024-1.547.011-.274-.007-.367.089-.366.361a14.622,14.622,0,0,1-.037,1.739,2.633,2.633,0,0,1-5.242-.107,9.984,9.984,0,0,1-.009-1.45c.041-.472-.151-.574-.573-.546a11.6,11.6,0,0,1-1.354-.007A2.629,2.629,0,0,1,36,40.334a15.932,15.932,0,0,1,1.69-.043c.3,0,.387-.1.385-.392q-.016-2.854,0-5.708c0-.267-.061-.408-.349-.463a7.282,7.282,0,0,1-1.067-.3c-.278-.1-.379-.039-.374.263.012.661,0,1.322,0,1.983a.972.972,0,0,1-.488.978.944.944,0,0,1-1.039-.15c-.279-.191-.57-.366-.843-.566s-.354-.119-.371.184a10.451,10.451,0,0,1-.6,2.975c-1.822,5.037-5.339,8.179-10.652,8.966-5.357.793-9.675-1.213-12.852-5.571A13.25,13.25,0,0,1,17.306,22.1c.273-.067.409-.151.408-.467-.011-3.547-.006-7.095-.008-10.642,0-.089.034-.194-.115-.3-.705.707-1.419,1.418-2.128,2.135a2.756,2.756,0,0,1-2.061.912,2.627,2.627,0,0,1-2.5-1.6,2.62,2.62,0,0,1,.378-2.9,6.025,6.025,0,0,1,.459-.5q3.744-3.747,7.492-7.49c.272-.271.57-.516.855-.773Zm.677,15.136V8.939c0-.113,0-.226,0-.338a.91.91,0,0,1,.567-.97.9.9,0,0,1,1.042.288q1.8,1.8,3.593,3.59a1.147,1.147,0,0,0,1.016.445.943.943,0,0,0,.8-.683,1.1,1.1,0,0,0-.407-1.162q-3.595-3.589-7.18-7.187c-.255-.257-.381-.262-.638,0Q16.5,6.494,12.936,10.043a2.679,2.679,0,0,0-.371.442.962.962,0,0,0,.145,1.2.925.925,0,0,0,1.156.153,2.388,2.388,0,0,0,.48-.4q1.663-1.655,3.32-3.316a3.625,3.625,0,0,1,.353-.33.869.869,0,0,1,1.453.58,2.749,2.749,0,0,1,.019.434q0,6.773,0,13.546c0,.914-.2,1.172-1.107,1.331A11.5,11.5,0,0,0,9.157,37.527a11.43,11.43,0,0,0,10.03,8.88,11.218,11.218,0,0,0,9.886-3.936,11.485,11.485,0,0,0-6.732-18.792c-.9-.168-1.091-.406-1.091-1.34q0-3.362,0-6.724M39.829,37.128c0,1.258,0,2.515,0,3.773,0,.841-.324,1.16-1.174,1.166-.693.005-1.386,0-2.08,0-.747,0-1.156.311-1.161.868s.421.889,1.145.891,1.451,0,2.176,0c.758.006,1.087.336,1.093,1.095.006.726,0,1.451,0,2.177s.339,1.15.893,1.143.861-.41.865-1.114c0-.726-.005-1.451,0-2.176.009-.788.342-1.119,1.119-1.124s1.548.009,2.322-.005a.882.882,0,1,0,0-1.753c-.725-.012-1.451,0-2.176,0-.966,0-1.261-.3-1.261-1.282q0-3.628,0-7.255c0-1.017.184-1.221,1.181-1.415a11.127,11.127,0,0,0,7.916-5.647,11.17,11.17,0,0,0-1.958-13.84A10.909,10.909,0,0,0,36.982,9.991a11.452,11.452,0,0,0-3.589,19.668,11.019,11.019,0,0,0,5.375,2.477c.845.143,1.059.414,1.06,1.268q0,1.862,0,3.724M26.247,16.844c-.141.087-.139.206-.165.314-.206.826-.409,1.654-.621,2.479-.2.788-.5.991-1.32.913-1.158-.111-1.151-.111-1.134,1.068,0,.262.058.4.346.466A12.9,12.9,0,0,1,27.584,23.9a1.61,1.61,0,0,0,.219.1.659.659,0,0,0,.014-.17,12.329,12.329,0,0,1-.11-5.5.34.34,0,0,0-.14-.375c-.447-.366-.887-.741-1.32-1.1m8.246,17.289c.106-1.605-.05-1.894-1.239-2.279a4.379,4.379,0,0,1,.172.9,1.374,1.374,0,0,0,1.067,1.38" transform="translate(-7.107 -0.479)" fill="#f40f34"/>
                <path id="Path_74622" data-name="Path 74622" d="M44,132.857a9.73,9.73,0,1,1-9.725-9.716A9.735,9.735,0,0,1,44,132.857m-1.951,1.191c-.579.484-1.153.973-1.737,1.449-.747.608-1.423.388-1.657-.536-.264-1.045-.536-2.089-.774-3.14-.077-.338-.208-.425-.553-.393-1.074.1-2.152.167-3.23.222-.978.049-1.366-.5-1.008-1.409.415-1.047.832-2.093,1.263-3.133.1-.239.11-.392-.126-.567-.5-.373-.989-.776-1.468-1.182a.638.638,0,0,0-.657-.137,7.949,7.949,0,1,0,4.928,15.1,7.565,7.565,0,0,0,5.02-6.277m-1.96-.677c.675-.565,1.286-1.083,1.905-1.591.161-.132.117-.274.081-.435a7.865,7.865,0,0,0-5.247-6,5.605,5.605,0,0,0-1.712-.356c.266.22.437.362.609.5.8.656.848.825.47,1.765L35.175,129.8c.961-.064,1.858-.134,2.756-.182,1.08-.058,1.238.07,1.5,1.117.212.854.43,1.706.664,2.632" transform="translate(-21.023 -98.369)" fill="#f40f34"/>
                <path id="Path_74623" data-name="Path 74623" d="M144.829,62.866a9.728,9.728,0,1,1-9.614-9.784,9.774,9.774,0,0,1,9.614,9.784m-11.777,7.573a7.379,7.379,0,0,0,3.777.132,7.7,7.7,0,0,0,5.989-5.976,7.6,7.6,0,0,0-2.575-7.839,7.962,7.962,0,0,0-11.317,1.018,1.412,1.412,0,0,0-.336,1.563,4.434,4.434,0,0,1,.263,1.027c.049.309.182.387.485.359,1.075-.1,2.153-.166,3.229-.244.988-.072,1.423.5,1.061,1.419-.4,1-.785,2.009-1.215,3-.144.33-.071.466.217.638.953.572,1.891,1.167,2.826,1.768a.886.886,0,0,1,.288,1.39,2.213,2.213,0,0,1-.46.347c-.729.462-1.461.917-2.234,1.4m-5.773-8.9a1.086,1.086,0,0,0-.045.131,7.97,7.97,0,0,0,3.563,7.817.339.339,0,0,0,.4.03c.718-.454,1.438-.9,2.228-1.4l-2.376-1.489c-.814-.511-.9-.785-.548-1.672.34-.847.677-1.694,1.042-2.607-.938.058-1.8.105-2.668.165-1.072.074-1.214-.007-1.594-.975" transform="translate(-101.487 -42.458)" fill="#f40f34"/>
              </g>
            </g>
          </g>
        </g>
      </g>
    </g>
  </g>
</svg>
