<svg xmlns="http://www.w3.org/2000/svg" width="74" height="74" viewBox="0 0 74 74">
  <g id="Group_51929" data-name="Group 51929" transform="translate(10457 -6289)">
    <circle id="Ellipse_489" data-name="Ellipse 489" cx="37" cy="37" r="37" transform="translate(-10457 6289)" fill="#e8e8e8"/>
    <g id="Group_51737" data-name="Group 51737" transform="translate(-10442.148 6298.759)">
      <g id="Group_50311" data-name="Group 50311" transform="translate(1 1)">
        <path id="Path_74584" data-name="Path 74584" d="M27.05,40.087A51.918,51.918,0,0,1,17,45.141c-1.156.445-2.4.881-3.708,1.29C4.91,49.043,4.7,43.954,4.7,43.954V35.119L1,35.233,2.33,21.41a20.483,20.483,0,0,1,40.966,0S42.89,28.829,37.643,33.5c0,0-2.862,5.006,2.339,15.035" transform="translate(-1 -1)" fill="none" stroke="#f40f34" stroke-linejoin="round" stroke-width="2"/>
        <line id="Line_185" data-name="Line 185" y1="8.343" transform="translate(16.272 44.14)" fill="none" stroke="#f40f34" stroke-linejoin="round" stroke-width="2"/>
        <path id="Path_74585" data-name="Path 74585" d="M36.194,24.176H30.328V18.311H24.586v5.866H18.721v5.741h5.866v5.866h5.741V29.918h5.866Z" transform="translate(-6.266 -6.144)" fill="none" stroke="#f40f34" stroke-linejoin="round" stroke-width="2"/>
      </g>
    </g>
  </g>
</svg>
