<svg xmlns="http://www.w3.org/2000/svg" width="74" height="74" viewBox="0 0 74 74">
  <g id="Group_52329" data-name="Group 52329" transform="translate(-238 -16401)">
    <circle id="Ellipse_487" data-name="Ellipse 487" cx="37" cy="37" r="37" transform="translate(238 16401)" fill="#e8e8e8"/>
    <g id="Group_50341" data-name="Group 50341" transform="translate(253.646 16411.18)">
      <g id="Group_50342" data-name="Group 50342" transform="translate(0 -0.004)">
        <path id="Path_74625" data-name="Path 74625" d="M40.707,28.933q0,10.02,0,20.039a4.6,4.6,0,0,1-2.952,4.372,4.48,4.48,0,0,1-1.623.3q-14.071,0-28.142,0a4.581,4.581,0,0,1-4.537-4.209c-.013-.17-.02-.341-.02-.511q0-9.9,0-19.791a.37.37,0,0,0-.136-.3,9.857,9.857,0,0,1-.008-14.712.386.386,0,0,0,.145-.316c-.005-1.64-.015-3.28,0-4.921A4.5,4.5,0,0,1,5.6,4.94a4.407,4.407,0,0,1,2.459-.7c1.128,0,2.256,0,3.384,0,.134,0,.175-.031.176-.171a10.466,10.466,0,0,1,.033-1.442A3.1,3.1,0,0,1,14.658,0Q22.07-.007,29.481,0a3.1,3.1,0,0,1,3.04,3.036c0,.352.006.7,0,1.055,0,.127.04.154.159.154q1.684-.006,3.368,0A4.587,4.587,0,0,1,40.707,8.91q0,10.012,0,20.023M33.349,16.141c-.071.013-.1.062-.131.1q-3.213,3.413-6.424,6.828a.908.908,0,0,1-1.24.194q-1.541-.868-3.081-1.739a.2.2,0,0,0-.238,0c-.813.485-1.627.968-2.446,1.442a.464.464,0,0,0-.246.355A9.874,9.874,0,0,1,5.4,30.269c-.174-.089-.174-.089-.174.107q0,9.3,0,18.6a3.159,3.159,0,0,0,.022.434,2.8,2.8,0,0,0,2.87,2.456H35.963A3.425,3.425,0,0,0,36.7,51.8a2.8,2.8,0,0,0,2.214-2.826q0-16.695,0-33.389c0-2.235,0-4.471,0-6.706a2.8,2.8,0,0,0-2.855-2.849c-1.118,0-2.235,0-3.353,0-.132,0-.184.024-.194.172a2.351,2.351,0,0,1-2.331,2.194q-8.118,0-16.237,0a2.352,2.352,0,0,1-2.323-2.2c-.007-.126-.044-.164-.172-.163-1.133,0-2.266,0-3.4,0a2.82,2.82,0,0,0-.479.04,2.787,2.787,0,0,0-2.35,2.788c0,1.247,0,2.494,0,3.741a.212.212,0,0,0,.017.135c.057.005.1-.033.141-.056a9.739,9.739,0,0,1,5.937-.964,9.869,9.869,0,0,1,8.377,9.073c.009.129.031.148.147.078.648-.388,1.3-.763,1.948-1.156a.99.99,0,0,1,1.1-.008c.96.551,1.928,1.088,2.89,1.635.089.051.143.059.222-.025q2.814-3,5.633-6c.025-.027.073-.047.05-.108-.334,0-.67,0-1.006,0a.89.89,0,0,1-.925-.868.88.88,0,0,1,.891-.917c1.061-.011,2.121-.008,3.182,0a.858.858,0,0,1,.831.631c.253.944.5,1.89.735,2.838a.881.881,0,0,1-.634,1.047.891.891,0,0,1-1.091-.6c-.023-.074-.041-.15-.061-.225l-.254-.97M9.846,29.548a8.076,8.076,0,1,0-8.068-8.079,8.091,8.091,0,0,0,8.068,8.079M22.067,6.607h7.976a.611.611,0,0,0,.7-.693q0-1.366,0-2.731A1.6,1.6,0,0,0,30.7,2.8a1.337,1.337,0,0,0-1.4-1.016H14.825A1.334,1.334,0,0,0,13.4,3.209q0,1.35,0,2.7c0,.479.222.7.706.7h7.96" transform="translate(0 0.003)" fill="#f40f34"/>
        <path id="Path_74626" data-name="Path 74626" d="M336.5,1288.105H347.5a.906.906,0,0,1,.943.674.893.893,0,0,1-.838,1.114c-.088,0-.176,0-.264,0q-10.936,0-21.871,0a.91.91,0,0,1-.893-.5.891.891,0,0,1,.756-1.287c.062,0,.124,0,.186,0H336.5" transform="translate(-314.41 -1248.115)" fill="#f40f34"/>
        <path id="Path_74627" data-name="Path 74627" d="M336.58,1459.2h11.033a.895.895,0,1,1,.1,1.787c-.052,0-.1,0-.155,0H325.573a.9.9,0,0,1-.972-.714.892.892,0,0,1,.854-1.075c.119,0,.238,0,.357,0H336.58" transform="translate(-314.504 -1413.895)" fill="#f40f34"/>
        <path id="Path_74628" data-name="Path 74628" d="M336.516,1117.085h11.052a.892.892,0,0,1,.2,1.77,1.749,1.749,0,0,1-.263.017H325.616a1.512,1.512,0,0,1-.476-.047.892.892,0,0,1,.231-1.741c.052,0,.1,0,.155,0h10.99" transform="translate(-314.444 -1082.405)" fill="#f40f34"/>
        <path id="Path_74629" data-name="Path 74629" d="M650.461,947.77q-3.057,0-6.115,0a.893.893,0,0,1-.111-1.781c.052,0,.1,0,.155,0h12.137a.9.9,0,0,1,.959.746.887.887,0,0,1-.786,1.034c-.082.008-.165.006-.248.006h-5.991" transform="translate(-623.437 -916.616)" fill="#f40f34"/>
        <path id="Path_74630" data-name="Path 74630" d="M207.679,486.364a.937.937,0,0,1,.544-1.01.889.889,0,0,1,1,.215.778.778,0,0,1,.236.559,1.572,1.572,0,0,0,1.846,1.486,1.685,1.685,0,0,0,.874-.37,1.352,1.352,0,0,0-.056-2.178,1.875,1.875,0,0,0-1.106-.345,3.343,3.343,0,0,1-2.767-1.445,3.139,3.139,0,0,1,1.132-4.593,2.774,2.774,0,0,1,.657-.274.17.17,0,0,0,.152-.216.959.959,0,0,1,0-.217.894.894,0,0,1,.91-.8.87.87,0,0,1,.863.863c0,.256.084.342.317.432a3.194,3.194,0,0,1,2.2,2.832.975.975,0,0,1-.211.77.893.893,0,0,1-.959.265.85.85,0,0,1-.606-.8,1.5,1.5,0,0,0-1.115-1.422,1.721,1.721,0,0,0-1.856.569,1.325,1.325,0,0,0,.091,1.723,1.666,1.666,0,0,0,1.247.536,3.407,3.407,0,0,1,2.644,1.195,3.141,3.141,0,0,1-.939,4.85,2.837,2.837,0,0,1-.657.274c-.118.03-.147.085-.15.2a.89.89,0,0,1-1.136.869.876.876,0,0,1-.645-.852c0-.144-.055-.187-.178-.23a3.244,3.244,0,0,1-2.3-2.586c-.023-.116-.028-.236-.035-.3" transform="translate(-201.225 -462.359)" fill="#f40f34"/>
      </g>
    </g>
  </g>
</svg>
