<svg xmlns="http://www.w3.org/2000/svg" xmlns:xlink="http://www.w3.org/1999/xlink" width="74" height="74" viewBox="0 0 74 74">
  <defs>
    <clipPath id="clip-path">
      <rect id="Rectangle_14548" data-name="Rectangle 14548" width="39.215" height="55.449" fill="none" stroke="#f40f34" stroke-width="1"/>
    </clipPath>
  </defs>
  <g id="Group_52325" data-name="Group 52325" transform="translate(-238 -15170)">
    <circle id="Ellipse_487" data-name="Ellipse 487" cx="37" cy="37" r="37" transform="translate(238 15170)" fill="#e8e8e8"/>
    <g id="Group_50323" data-name="Group 50323" transform="translate(255.393 15179.275)">
      <line id="Line_188" data-name="Line 188" x2="15.055" transform="translate(12.079 46.441)" fill="none" stroke="#f40f34" stroke-width="2"/>
      <line id="Line_189" data-name="Line 189" x2="15.055" transform="translate(12.079 50.441)" fill="none" stroke="#f40f34" stroke-width="2"/>
      <g id="Group_50322" data-name="Group 50322" transform="translate(0 0)">
        <g id="Group_50321" data-name="Group 50321" clip-path="url(#clip-path)">
          <path id="Path_74602" data-name="Path 74602" d="M36.225,30.248H34.6a1.623,1.623,0,0,1-1.492-1.024L33.1,29.2a1.624,1.624,0,0,1,.329-1.781l1.148-1.148a.766.766,0,0,0,0-1.082l-3.249-3.247a.764.764,0,0,0-1.082,0L29.1,23.092a1.623,1.623,0,0,1-1.782.329l-.02-.009a1.623,1.623,0,0,1-1.024-1.491V20.3a.765.765,0,0,0-.765-.765H20.918a.765.765,0,0,0-.765.765V21.92a1.623,1.623,0,0,1-1.024,1.492l-.02.009a1.623,1.623,0,0,1-1.782-.329l-1.147-1.147a.764.764,0,0,0-1.082,0l-3.249,3.247a.765.765,0,0,0,0,1.082L13,27.421a1.624,1.624,0,0,1,.33,1.782l-.009.02a1.623,1.623,0,0,1-1.492,1.024H10.2a.766.766,0,0,0-.766.766V35.6a.766.766,0,0,0,.766.766h1.622a1.624,1.624,0,0,1,1.492,1.024l.008.02A1.624,1.624,0,0,1,13,39.2l-1.148,1.147a.766.766,0,0,0,0,1.082L15.1,44.674a.787.787,0,0,0,1.082,0l1.147-1.148a1.623,1.623,0,0,1,1.782-.329l.02.008A1.624,1.624,0,0,1,20.153,44.7V46.32a.765.765,0,0,0,.765.765H25.51a.765.765,0,0,0,.765-.765V44.7A1.623,1.623,0,0,1,27.3,43.205l.02-.009a1.622,1.622,0,0,1,1.781.33l1.148,1.147a.765.765,0,0,0,1.082,0l3.247-3.248a.765.765,0,0,0,0-1.082L33.432,39.2a1.623,1.623,0,0,1-.33-1.781l.009-.02A1.623,1.623,0,0,1,34.6,36.37h1.623a.766.766,0,0,0,.765-.766V31.013a.766.766,0,0,0-.765-.766" transform="translate(-3.607 -7.465)" fill="none" stroke="#f40f34" stroke-width="1"/>
          <path id="Path_74603" data-name="Path 74603" d="M36.225,30.248H34.6a1.623,1.623,0,0,1-1.492-1.024L33.1,29.2a1.624,1.624,0,0,1,.329-1.781l1.148-1.148a.766.766,0,0,0,0-1.082l-3.249-3.247a.764.764,0,0,0-1.082,0L29.1,23.092a1.623,1.623,0,0,1-1.782.329l-.02-.009a1.623,1.623,0,0,1-1.024-1.491V20.3a.765.765,0,0,0-.765-.765H20.918a.765.765,0,0,0-.765.765V21.92a1.623,1.623,0,0,1-1.024,1.492l-.02.009a1.623,1.623,0,0,1-1.782-.329l-1.147-1.147a.764.764,0,0,0-1.082,0l-3.249,3.247a.765.765,0,0,0,0,1.082L13,27.421a1.624,1.624,0,0,1,.33,1.782l-.009.02a1.623,1.623,0,0,1-1.492,1.024H10.2a.766.766,0,0,0-.766.766V35.6a.766.766,0,0,0,.766.766h1.622a1.624,1.624,0,0,1,1.492,1.024l.008.02A1.624,1.624,0,0,1,13,39.2l-1.148,1.147a.766.766,0,0,0,0,1.082L15.1,44.674a.787.787,0,0,0,1.082,0l1.147-1.148a1.623,1.623,0,0,1,1.782-.329l.02.008A1.624,1.624,0,0,1,20.153,44.7V46.32a.765.765,0,0,0,.765.765H25.51a.765.765,0,0,0,.765-.765V44.7A1.623,1.623,0,0,1,27.3,43.205l.02-.009a1.622,1.622,0,0,1,1.781.33l1.148,1.147a.765.765,0,0,0,1.082,0l3.247-3.248a.765.765,0,0,0,0-1.082L33.432,39.2a1.623,1.623,0,0,1-.33-1.781l.009-.02A1.623,1.623,0,0,1,34.6,36.37h1.623a.766.766,0,0,0,.765-.766V31.013A.766.766,0,0,0,36.225,30.248Z" transform="translate(-3.607 -7.465)" fill="none" stroke="#f40f34" stroke-width="2"/>
          <path id="Path_74604" data-name="Path 74604" d="M34.4,37.514a6.977,6.977,0,1,1-6.977-6.977A6.977,6.977,0,0,1,34.4,37.514" transform="translate(-7.813 -11.67)" fill="none" stroke="#f40f34" stroke-width="1"/>
          <path id="Path_74605" data-name="Path 74605" d="M34.4,37.514a6.977,6.977,0,1,1-6.977-6.977A6.977,6.977,0,0,1,34.4,37.514Z" transform="translate(-7.813 -11.67)" fill="none" stroke="#f40f34" stroke-width="2"/>
          <line id="Line_190" data-name="Line 190" y1="3.534" x2="0.58" transform="translate(22.61 0.1)" fill="none" stroke="#f40f34" stroke-width="2"/>
          <line id="Line_191" data-name="Line 191" y1="3.036" x2="1.899" transform="translate(29.596 3.127)" fill="none" stroke="#f40f34" stroke-width="2"/>
          <line id="Line_192" data-name="Line 192" x1="1.793" y1="3.1" transform="translate(8.34 2.99)" fill="none" stroke="#f40f34" stroke-width="2"/>
          <line id="Line_193" data-name="Line 193" x1="0.709" y1="3.51" transform="translate(15.105 0.341)" fill="none" stroke="#f40f34" stroke-width="2"/>
          <path id="Path_74606" data-name="Path 74606" d="M38.979,29.629A18.99,18.99,0,1,0,12.462,47.065v8.6A3.235,3.235,0,0,0,15.7,58.9h8.586a3.235,3.235,0,0,0,3.235-3.235v-8.6A18.992,18.992,0,0,0,38.979,29.629Z" transform="translate(-0.382 -4.066)" fill="none" stroke="#f40f34" stroke-width="2"/>
        </g>
      </g>
    </g>
  </g>
</svg>
