<svg xmlns="http://www.w3.org/2000/svg" width="74" height="74" viewBox="0 0 74 74">
  <g id="Group_52341" data-name="Group 52341" transform="translate(-691 -19033)">
    <circle id="Ellipse_489" data-name="Ellipse 489" cx="37" cy="37" r="37" transform="translate(691 19033)" fill="#e8e8e8"/>
    <g id="Group_50357" data-name="Group 50357" transform="translate(699.652 19041.463)">
      <g id="Group_50358" data-name="Group 50358">
        <path id="Path_74657" data-name="Path 74657" d="M86.923,0a5.4,5.4,0,1,0,5.4,5.4,5.405,5.405,0,0,0-5.4-5.4m0,8.1a2.7,2.7,0,1,1,2.7-2.7,2.7,2.7,0,0,1-2.7,2.7" transform="translate(-58.575)" fill="#f40f34"/>
        <path id="Path_74658" data-name="Path 74658" d="M73.886,45.859h5.4a4.053,4.053,0,0,1,4.05,4.05h2.7a6.757,6.757,0,0,0-6.749-6.749h-5.4a6.325,6.325,0,0,0-6.749,6.749h2.7c0-1.512.526-4.05,4.05-4.05" transform="translate(-48.238 -31.01)" fill="#f40f34"/>
        <path id="Path_74659" data-name="Path 74659" d="M15.666,65.042a3.375,3.375,0,1,1-3.375,3.375,3.378,3.378,0,0,1,3.375-3.375m0,9.449a6.074,6.074,0,1,0-6.075-6.075,6.081,6.081,0,0,0,6.075,6.075" transform="translate(-6.891 -44.793)" fill="#f40f34"/>
        <path id="Path_74660" data-name="Path 74660" d="M154.735,65.042a3.375,3.375,0,1,1-3.375,3.375,3.378,3.378,0,0,1,3.375-3.375m0,9.449a6.074,6.074,0,1,0-6.075-6.075,6.081,6.081,0,0,0,6.075,6.075" transform="translate(-106.813 -44.793)" fill="#f40f34"/>
        <path id="Path_74661" data-name="Path 74661" d="M32.4,91.577v1.35c0,3.722,2.423,6.75,5.4,6.75h8.1v2.7H10.8v-2.7h8.1c2.978,0,5.4-3.028,5.4-6.75v-1.35H15.524l-.129-.171,4.443-11.978h17.02L41.3,91.4l-.129.172Zm18.9-5.4H45.222l-1.994,2.659L38.737,76.728H17.96L13.469,88.836l-1.994-2.659H5.4a5.405,5.405,0,0,0-5.4,5.4v13.5H2.7v-13.5a2.7,2.7,0,0,1,2.7-2.7h4.725l4.05,5.4h7.264c-.38,1.556-1.39,2.7-2.54,2.7H10.172l-2.3-3.449-2.246,1.5L8.1,98.735v6.341H48.6V98.735l2.473-3.71-2.247-1.5-2.3,3.449H37.8c-1.15,0-2.159-1.144-2.538-2.7h7.263l4.05-5.4H51.3a2.7,2.7,0,0,1,2.7,2.7v13.5h2.7v-13.5a5.4,5.4,0,0,0-5.4-5.4" transform="translate(0 -55.13)" fill="#f40f34"/>
      </g>
    </g>
  </g>
</svg>
