<svg xmlns="http://www.w3.org/2000/svg" width="74" height="74" viewBox="0 0 74 74">
  <g id="Group_52340" data-name="Group 52340" transform="translate(-238 -19033)">
    <circle id="Ellipse_487" data-name="Ellipse 487" cx="37" cy="37" r="37" transform="translate(238 19033)" fill="#e8e8e8"/>
    <g id="Group_50354" data-name="Group 50354" transform="translate(246.299 19042.67)">
      <path id="Path_74653" data-name="Path 74653" d="M26.485,12.556,29.9,15.968l4.825-4.826" transform="translate(-0.909 -0.368)" fill="none" stroke="#f40f34" stroke-linejoin="round" stroke-width="2.6"/>
      <g id="Group_50353" data-name="Group 50353" transform="translate(0.7 0.7)">
        <g id="Group_50355" data-name="Group 50355">
          <path id="Path_74654" data-name="Path 74654" d="M35.043,21.892a12.723,12.723,0,0,1-5.126,2.824.612.612,0,0,1-.369.012,12.717,12.717,0,0,1-8.907-8.866,9.992,9.992,0,0,1-.4-2.941q0-1.833,0-3.667h.008V4.9c0-.339,0-.339.337-.375A16.9,16.9,0,0,0,29.5.8c.18-.145.273-.126.44.007a16.876,16.876,0,0,0,9.066,3.721c.167.016.2.068.2.225,0,.79,0,2.676,0,3.466v5.968" transform="translate(-1.389 -0.7)" fill="none" stroke="#f40f34" stroke-linejoin="round" stroke-width="2.6"/>
          <path id="Path_74655" data-name="Path 74655" d="M42.671,33.386l8.386-8.661s2.472-1.747,4.645,0a3.61,3.61,0,0,1,.788,4.448c-1.064,2.2-10.945,13.03-10.945,13.03a10.883,10.883,0,0,1-7.756,2.953c-5-.04-14.526,0-14.526,0a7.2,7.2,0,0,0-4.916,2.959L7.363,37.521l.153-.434s5.433-10.393,18.4-6.3l13.4.04a3.817,3.817,0,0,1,3.346,3.858,3.447,3.447,0,0,1-2.992,3.5H26.432" transform="translate(-0.935 -1.52)" fill="none" stroke="#f40f34" stroke-width="2.6"/>
          <path id="Path_74656" data-name="Path 74656" d="M19.361,49.777h0a7.625,7.625,0,0,1-10.782.194L.7,42.37l5.294-5.488Z" transform="translate(-0.7 -1.976)" fill="none" stroke="#f40f34" stroke-linejoin="round" stroke-width="2.6"/>
          <line id="Line_197" data-name="Line 197" x1="1.764" y1="1.764" transform="translate(11.127 45.336)" fill="#fff" stroke="#f40f34" stroke-width="2.6"/>
          <line id="Line_198" data-name="Line 198" x1="1.764" y1="1.764" transform="translate(11.127 45.336)" fill="none" stroke="#f40f34" stroke-linejoin="round" stroke-width="2.6"/>
        </g>
      </g>
    </g>
  </g>
</svg>
