<svg xmlns="http://www.w3.org/2000/svg" xmlns:xlink="http://www.w3.org/1999/xlink" width="74" height="74" viewBox="0 0 74 74">
  <defs>
    <clipPath id="clip-path">
      <rect id="Rectangle_14571" data-name="Rectangle 14571" width="54.52" height="45.539" fill="#f40f34"/>
    </clipPath>
  </defs>
  <g id="Group_52339" data-name="Group 52339" transform="translate(-691 -17795)">
    <circle id="Ellipse_489" data-name="Ellipse 489" cx="37" cy="37" r="37" transform="translate(691 17795)" fill="#e8e8e8"/>
    <g id="Group_50351" data-name="Group 50351" transform="translate(700.74 17809.23)">
      <g id="Group_50350" data-name="Group 50350" clip-path="url(#clip-path)">
        <path id="Path_74648" data-name="Path 74648" d="M60.793,21.738a11.924,11.924,0,0,1,.508,1.486,5.852,5.852,0,0,1,.2,1.466V44.838a.626.626,0,1,0,1.253,0V33.45h2.4c.091.108.186.213.286.313a4.815,4.815,0,0,0,6.811,0c.1-.1.195-.2.285-.313h2.4V44.8a.626.626,0,0,0,1.253,0V23.664a10.409,10.409,0,0,0,1.243-1.429,8.345,8.345,0,0,0,3.1-6.609,11.406,11.406,0,0,0-.588-3.518,10.954,10.954,0,0,0-.525-1.321V4.093a3.006,3.006,0,0,0-5.073-2.186A3,3,0,0,0,69.529,1.1c-.06.06-.117.124-.172.189A2.962,2.962,0,0,0,69.02.882a3.01,3.01,0,0,0-4.9.959,3.007,3.007,0,0,0-5,2.251V16.024a8.5,8.5,0,0,0,.4,2.493c.355,1.162.868,2.212,1.275,3.221M62.754,32.2v-3.68H64.4a4.819,4.819,0,0,0,0,3.68Zm9.017.2-2.3-2.3V26.85a3.562,3.562,0,0,1,2.3,5.544m-3.549-2.3-2.3,2.3a3.562,3.562,0,0,1,2.3-5.544Zm0,1.772v1.994a3.536,3.536,0,0,1-1.411-.584Zm1.253,1.994V31.87l1.411,1.411a3.532,3.532,0,0,1-1.411.584M73.3,32.2a4.82,4.82,0,0,0,0-3.68h1.644V32.2Zm5.429-13.69a7.381,7.381,0,0,1-2.153,2.817.522.522,0,0,0-.045.045l-.01-.01a9.162,9.162,0,0,1-1.372,1.572.627.627,0,0,0-.205.464v3.869h-2.4c-.091-.109-.186-.213-.285-.313a4.816,4.816,0,0,0-6.811,0c-.1.1-.195.2-.285.313h-2.4V24.69a7.616,7.616,0,0,0-.4-2.339c-.356-1.106-.865-2.134-1.27-3.166a8.553,8.553,0,0,1-.71-3.162V12.929a3,3,0,0,0,3.759-.2,3.008,3.008,0,0,0,4.888.933,2.911,2.911,0,0,0,.255-.295,2.945,2.945,0,0,0,.255.295,3,3,0,0,0,3.89.308.622.622,0,0,0,.209.416,6.507,6.507,0,0,0-1.362.756,5.111,5.111,0,0,0-1.118,1.068.625.625,0,0,0,.956.8.639.639,0,0,0,.064-.073h0a4.1,4.1,0,0,1,.89-.821,5.516,5.516,0,0,1,2.678-.968.626.626,0,0,0,.337-1.108L70.818,9.733a1.756,1.756,0,0,1,2.31-2.645l.014.012L78.3,11.334a9.8,9.8,0,0,1,.474,1.2,10.164,10.164,0,0,1,.513,3.09,7.344,7.344,0,0,1-.562,2.882M69.9,10.585c.032.031.062.064.1.094l.015.012,2.72,2.231A1.754,1.754,0,0,1,69.9,11.537Zm6.522-8.249a1.755,1.755,0,0,1,1.756,1.756V9.61L74.666,6.73V4.092a1.756,1.756,0,0,1,1.756-1.756M71.657,1.47a1.756,1.756,0,0,1,1.756,1.756V4.659s0,.007,0,.011v1.1a2.99,2.99,0,0,0-3.512.463V4.67h0V3.226A1.756,1.756,0,0,1,71.657,1.47m-6.52,1.54a1.756,1.756,0,1,1,3.512,0V4.657s0,.008,0,.013v6.866a1.756,1.756,0,0,1-3.512,0V4.67h0V3.01ZM60.372,4.092a1.756,1.756,0,1,1,3.511,0v.569s0,.006,0,.009v5.837a1.755,1.755,0,0,1-3.511-.018v-6.4Z" transform="translate(-42.577 -0.001)" fill="#f40f34"/>
        <path id="Path_74649" data-name="Path 74649" d="M1.219,60.31a8.431,8.431,0,0,1,.359,1.049,4.042,4.042,0,0,1,.139,1.013v14.52a.626.626,0,1,0,1.253,0V62.372a5.664,5.664,0,0,0-.3-1.739c-.262-.814-.631-1.557-.919-2.292a5.985,5.985,0,0,1-.5-2.214V54.212a2.333,2.333,0,0,0,2.474-.184,2.343,2.343,0,0,0,3.707.523c.021-.021.04-.044.06-.066.02.022.039.045.06.066a2.334,2.334,0,0,0,2.308.593c-.113.069-.22.139-.315.208a3.854,3.854,0,0,0-.846.81.626.626,0,0,0,1.019.729h0l.009-.011a2.952,2.952,0,0,1,.67-.595,3.815,3.815,0,0,1,1.768-.613.626.626,0,0,0,.337-1.108l-3.782-3.1a1.083,1.083,0,0,1-.277-.375,1.1,1.1,0,0,1-.094-.445,1.082,1.082,0,0,1,.269-.716h0a1.09,1.09,0,0,1,1.538-.1l.015.012,3.689,3.026a7.025,7.025,0,0,1,.325.837,7.132,7.132,0,0,1,.352,2.145,4.947,4.947,0,0,1-1.893,3.972.572.572,0,0,0-.045.046l-.01-.01a6.412,6.412,0,0,1-.98,1.128.627.627,0,0,0-.205.464V76.868a.626.626,0,0,0,1.253,0V61.707a7.679,7.679,0,0,0,.855-.99,6.179,6.179,0,0,0,2.279-4.877,8.4,8.4,0,0,0-.432-2.59,8.12,8.12,0,0,0-.37-.937V47.529a2.341,2.341,0,0,0-3.781-1.848,2.339,2.339,0,0,0-3.64-.445c-.042-.05-.086-.1-.132-.145a2.344,2.344,0,0,0-3.718.541A2.342,2.342,0,0,0,0,47.529v8.6a6.3,6.3,0,0,0,.3,1.848c.262.855.634,1.616.924,2.335m8.466-6.437a1.089,1.089,0,0,1-1.566-.98v-.3Zm2.959-7.435a1.09,1.09,0,0,1,1.09,1.09v3.607l-2.181-1.789V47.529a1.091,1.091,0,0,1,1.09-1.09m-3.434-.625A1.091,1.091,0,0,1,10.3,46.9v1.041h0v.519a2.306,2.306,0,0,0-2.181.244v-.763h0V46.9a1.091,1.091,0,0,1,1.09-1.091m-4.524.935a1.09,1.09,0,1,1,2.181,0v1.186s0,.007,0,.011v4.948a1.09,1.09,0,1,1-2.181,0V47.945h0v-1.2Zm-3.434.78a1.09,1.09,0,0,1,2.181,0v.41s0,0,0,.006v4.207a1.09,1.09,0,0,1-2.18-.013V48.107h0Z" transform="translate(0 -31.98)" fill="#f40f34"/>
        <path id="Path_74650" data-name="Path 74650" d="M139.636,60.31A8.475,8.475,0,0,1,140,61.359a4.031,4.031,0,0,1,.139,1.013v14.52a.626.626,0,1,0,1.252,0V62.372a5.672,5.672,0,0,0-.3-1.739c-.262-.814-.631-1.557-.919-2.292a5.979,5.979,0,0,1-.5-2.214V54.212a2.334,2.334,0,0,0,2.473-.184,2.343,2.343,0,0,0,3.706.523c.021-.021.04-.044.06-.066.02.022.039.045.06.066a2.335,2.335,0,0,0,2.308.592c-.113.069-.22.139-.315.208a3.842,3.842,0,0,0-.846.81.625.625,0,0,0,.956.8.592.592,0,0,0,.063-.072h0l.008-.011a2.962,2.962,0,0,1,.67-.594,3.815,3.815,0,0,1,1.768-.613.626.626,0,0,0,.337-1.108l-3.783-3.1a1.091,1.091,0,0,1-.1-1.536h0a1.091,1.091,0,0,1,1.539-.1l.014.012,3.689,3.026a6.9,6.9,0,0,1,.326.837,7.128,7.128,0,0,1,.352,2.146,4.946,4.946,0,0,1-1.893,3.972.494.494,0,0,0-.045.046l-.01-.01a6.425,6.425,0,0,1-.98,1.128.626.626,0,0,0-.205.464V76.868a.626.626,0,0,0,1.252,0V61.707a7.661,7.661,0,0,0,.855-.99,6.181,6.181,0,0,0,2.278-4.877,8.4,8.4,0,0,0-.432-2.59,8.27,8.27,0,0,0-.37-.937V47.529a2.341,2.341,0,0,0-3.781-1.848,2.338,2.338,0,0,0-3.64-.445c-.042-.05-.086-.1-.132-.145a2.344,2.344,0,0,0-3.718.541,2.342,2.342,0,0,0-3.716,1.9v8.6a6.3,6.3,0,0,0,.3,1.848c.262.855.634,1.616.924,2.335m8.466-6.437a1.089,1.089,0,0,1-1.566-.98v-.3Zm2.958-7.435a1.091,1.091,0,0,1,1.091,1.09v3.607l-2.181-1.789V47.529a1.091,1.091,0,0,1,1.09-1.09m-3.434-.625a1.09,1.09,0,0,1,1.09,1.091v1.031s0,.006,0,.009v.519a2.306,2.306,0,0,0-2.181.244v-.763h0V46.9a1.091,1.091,0,0,1,1.09-1.091m-4.524.935a1.091,1.091,0,0,1,2.181,0v1.189s0,.005,0,.008v4.948a1.09,1.09,0,1,1-2.181,0V47.945h0v-1.2Zm-3.433.78a1.09,1.09,0,1,1,2.181,0v.407s0,.006,0,.009v4.212a1.09,1.09,0,0,1-2.18-.018v-4.61Z" transform="translate(-99.686 -31.98)" fill="#f40f34"/>
      </g>
    </g>
  </g>
</svg>
