<svg xmlns="http://www.w3.org/2000/svg" xmlns:xlink="http://www.w3.org/1999/xlink" width="74" height="74" viewBox="0 0 74 74">
  <defs>
    <clipPath id="clip-path">
      <rect id="Rectangle_14570" data-name="Rectangle 14570" width="54.271" height="54.271" fill="#f40f34"/>
    </clipPath>
  </defs>
  <g id="Group_52338" data-name="Group 52338" transform="translate(-238 -17795)">
    <circle id="Ellipse_487" data-name="Ellipse 487" cx="37" cy="37" r="37" transform="translate(238 17795)" fill="#e8e8e8"/>
    <g id="Group_50349" data-name="Group 50349" transform="translate(247.864 17803.895)">
      <g id="Group_50348" data-name="Group 50348" clip-path="url(#clip-path)">
        <path id="Path_74647" data-name="Path 74647" d="M27.136,0A4.522,4.522,0,0,0,23.466,7.17a6.845,6.845,0,0,0-2.662,5.5v.9a2.711,2.711,0,0,0,2.712,2.713c2.486,0,4.929,0,7.24,0a2.711,2.711,0,0,0,2.712-2.713v-.9a6.845,6.845,0,0,0-2.662-5.5A4.522,4.522,0,0,0,27.136,0m0,1.809a2.715,2.715,0,1,1-2.713,2.71,2.715,2.715,0,0,1,2.713-2.71m-2.3,6.608a4.5,4.5,0,0,0,4.6,0,5,5,0,0,1,2.224,4.25v.9a.9.9,0,0,1-.9.9c-2.487,0-4.928,0-7.24,0a.9.9,0,0,1-.9-.9v-.9a5,5,0,0,1,2.224-4.25m-7.731,3.075a.9.9,0,0,0-.406.106A22.608,22.608,0,0,0,5.535,24.967a.906.906,0,0,0,1.73.541A20.808,20.808,0,0,1,17.534,13.2a.906.906,0,0,0-.428-1.708m20.087,0a1.06,1.06,0,0,0-.135,0,.9.9,0,0,0-.321,1.7A20.8,20.8,0,0,1,47.007,25.5a.905.905,0,0,0,1.73-.534A22.615,22.615,0,0,0,37.573,11.6a.837.837,0,0,0-.379-.1M18.089,21.708a3.619,3.619,0,0,0-3.62,3.62V38.9a.9.9,0,0,0,1.549.641l3.339-3.351H19.9A3.619,3.619,0,0,0,23.514,39.8h11.4l3.337,3.351a.905.905,0,0,0,1.55-.641V28.946a3.618,3.618,0,0,0-3.618-3.62H34.374a3.62,3.62,0,0,0-3.618-3.618Zm0,1.811H30.756a1.8,1.8,0,0,1,1.809,1.809v7.238a1.807,1.807,0,0,1-1.809,1.809H18.983a.9.9,0,0,0-.64.267L16.28,36.712V25.328a1.806,1.806,0,0,1,1.809-1.809m16.285,3.618h1.807a1.805,1.805,0,0,1,1.809,1.809V40.33l-2.063-2.07a.906.906,0,0,0-.642-.267H23.514a1.8,1.8,0,0,1-1.805-1.807h9.047a3.62,3.62,0,0,0,3.618-3.62Zm-28.042.9a4.523,4.523,0,0,0-3.669,7.169A6.844,6.844,0,0,0,0,40.706v.9a2.711,2.711,0,0,0,2.712,2.714c2.487,0,4.929,0,7.24,0a2.711,2.711,0,0,0,2.712-2.714v-.9A6.844,6.844,0,0,0,10,35.208,4.523,4.523,0,0,0,6.332,28.04m41.608,0a4.523,4.523,0,0,0-3.67,7.169,6.845,6.845,0,0,0-2.662,5.5v.9a2.711,2.711,0,0,0,2.712,2.714c2.486,0,4.929,0,7.24,0a2.711,2.711,0,0,0,2.712-2.714v-.9a6.844,6.844,0,0,0-2.662-5.5A4.523,4.523,0,0,0,47.94,28.04m-27.136,0a.9.9,0,1,0,.9.9.9.9,0,0,0-.9-.9m3.618,0a.9.9,0,1,0,.9.9.9.9,0,0,0-.9-.9m3.618,0a.9.9,0,1,0,.9.9.9.9,0,0,0-.9-.9M6.332,29.849a2.714,2.714,0,1,1-2.714,2.71,2.715,2.715,0,0,1,2.714-2.71m41.608,0a2.714,2.714,0,1,1-2.714,2.71,2.715,2.715,0,0,1,2.714-2.71M4.033,36.456a4.5,4.5,0,0,0,4.6,0,5,5,0,0,1,2.224,4.251v.9a.9.9,0,0,1-.9.9c-2.486,0-4.928,0-7.24,0a.9.9,0,0,1-.9-.9v-.9a5,5,0,0,1,2.224-4.251m41.608,0a4.5,4.5,0,0,0,4.6,0,5,5,0,0,1,2.224,4.251v.9a.9.9,0,0,1-.9.9c-2.487,0-4.929,0-7.24,0a.9.9,0,0,1-.9-.9v-.9a5,5,0,0,1,2.224-4.251M12.378,46.666h-.045a.912.912,0,0,0-.574,1.576,22.618,22.618,0,0,0,30.722.027.9.9,0,1,0-1.226-1.329,20.812,20.812,0,0,1-28.268-.027.9.9,0,0,0-.608-.248" transform="translate(0 -0.001)" fill="#f40f34"/>
      </g>
    </g>
  </g>
</svg>
