<svg xmlns="http://www.w3.org/2000/svg" width="74" height="74" viewBox="0 0 74 74">
  <g id="Group_52328" data-name="Group 52328" transform="translate(-691 -16401)">
    <circle id="Ellipse_489" data-name="Ellipse 489" cx="37" cy="37" r="37" transform="translate(691 16401)" fill="#e8e8e8"/>
    <g id="Group_50344" data-name="Group 50344" transform="translate(703.273 16411)">
      <g id="Group_50345" data-name="Group 50345" transform="translate(0 0)">
        <path id="Path_74631" data-name="Path 74631" d="M18.334,16.409c0-1.335-.039-2.672.015-4.005a1.286,1.286,0,0,0-.988-1.515c-1.624-.559-3.195-1.27-4.792-1.909-.453-.181-.925-.355-.9-.948.026-.53.49-.666.893-.809Q22.6,3.665,32.622.1a2.037,2.037,0,0,1,1.488.1q9.514,3.466,19.027,6.932c.89.324,1.524.686.729,1.742-.172.229-.081.668-.083,1.011-.006,1.766.006,3.532-.007,5.3a2.572,2.572,0,0,0,.8,2.409,1.344,1.344,0,0,1,.3,1.78c-.769,1.075-.407,2.107-.141,3.179a14.344,14.344,0,0,1,.33,1.512,2.131,2.131,0,0,1-1.989,2.389,2.04,2.04,0,0,1-2.142-2.213,10.659,10.659,0,0,1,.357-1.9,3.124,3.124,0,0,0-.172-2.909,1.546,1.546,0,0,1,.486-2.086,1.657,1.657,0,0,0,.638-1.551c-.021-1.766-.051-3.534.011-5.3.033-.94-.288-1.036-1.012-.638a1,1,0,0,1-.118.051c-3.065,1.209-3.065,1.209-3.065,4.5,0,1.809-.066,3.622.019,5.426a3.606,3.606,0,0,1-2.155,3.634,19.181,19.181,0,0,1-6.54,1.876,41.948,41.948,0,0,1-15.65-.638,16.51,16.51,0,0,1-1.726-.528c-3.082-1.12-3.671-1.962-3.671-5.19q0-1.292,0-2.584m32.9-8.221c-.509-.238-.723-.359-.951-.442C44.868,5.771,39.449,3.81,34.042,1.814a2.532,2.532,0,0,0-1.86.088c-5.428,1.937-10.864,3.85-16.293,5.784-.293.1-.674.109-.868.492a1.376,1.376,0,0,0,.291.23q8.677,3.5,17.358,6.983a1.207,1.207,0,0,0,.985.045c5.758-2.384,11.522-4.753,17.578-7.247M19.88,11.961v7.134c0,2.461.15,2.685,2.464,3.556a15.817,15.817,0,0,0,1.6.514,39.223,39.223,0,0,0,13.213.889A23.61,23.61,0,0,0,44.8,22.331a2.48,2.48,0,0,0,1.746-2.671c-.129-2.1-.031-4.221-.034-6.332,0-1.513-.007-1.52-1.361-.963-3.62,1.49-7.245,2.966-10.848,4.5a2.505,2.505,0,0,1-2.09.029C29.15,15.631,26.074,14.4,23,13.172c-.986-.4-1.981-.77-3.119-1.211M52.894,22.206c-.177.91-.314,1.492-.394,2.081a.465.465,0,0,0,.514.576c.274-.012.535-.193.488-.48a5.489,5.489,0,0,0-.608-2.176" transform="translate(-8.653 -0.001)" fill="#f40f34"/>
        <path id="Path_74632" data-name="Path 74632" d="M13.2,108.9c3.7.334,3.7.334,3.689,4.072,0,1.8.01,3.593,0,5.39-.012,1.674-.508,2.2-2.139,2.2q-6.333.02-12.666,0c-1.564-.006-2.062-.523-2.074-2.123-.018-2.317-.008-4.634,0-6.952,0-2.127.361-2.485,2.463-2.5.368,0,.737,0,1.2,0-3.307-4.469-3.3-8.42-.094-11.257a7.319,7.319,0,0,1,9.973.225c3,2.912,2.9,7.056-.345,10.942m1-5.694a5.76,5.76,0,1,0-11.52,0,5.76,5.76,0,1,0,11.52,0M8.3,113.942h4.906c2.173,0,2.121,0,2.168-2.2.02-.964-.249-1.241-1.224-1.223-3.441.061-6.885.024-10.328.024-2.39,0-2.362,0-2.293,2.448.02.716.219.983.961.967,1.936-.042,3.873-.014,5.809-.014m.173,5.083c1.59,0,3.181.018,4.771,0,2.411-.033,2.021.385,2.13-2.112.049-1.119-.371-1.361-1.4-1.344-3.395.055-6.791,0-10.186.027-2.534.019-2.166-.416-2.261,2.26-.036,1.019.357,1.222,1.275,1.192,1.889-.063,3.782-.019,5.673-.019" transform="translate(0 -71.083)" fill="#f40f34"/>
        <path id="Path_74633" data-name="Path 74633" d="M88.209,132.9c-4.694,0-9.388-.028-14.082.023-.976.01-1.241-.276-1.235-1.234.039-6.029.031-12.058.007-18.087,0-.8.174-1.116,1.07-1.113q14.211.051,28.422,0c.851,0,1.1.244,1.1,1.083q-.043,9.108,0,18.216c.006.943-.341,1.133-1.2,1.126-4.694-.036-9.388-.017-14.082-.017m.126-18.842c-4.223,0-8.447.031-12.669-.023-.965-.012-1.244.24-1.235,1.216q.072,7.433,0,14.867c-.007.923.2,1.265,1.207,1.26q12.54-.062,25.081,0c.981,0,1.238-.282,1.23-1.235q-.063-7.433,0-14.867c.007-.93-.2-1.258-1.207-1.243-4.136.062-8.274.026-12.411.026" transform="translate(-54.038 -83.392)" fill="#f40f34"/>
        <path id="Path_74634" data-name="Path 74634" d="M25.884,115.4a.8.8,0,0,0-.673-1.03,1.53,1.53,0,0,1-1.24-1.595c.016-.9.636-1.24,1.262-1.757,1.163-.96,1.835.206,2.721.37.328.061.311.37.153.621-.136.214-.262.39-.61.268-.31-.108-.846-.671-.952.167-.063.5-.269,1.127.558,1.358a1.679,1.679,0,0,1,1.429,1.741,1.628,1.628,0,0,1-1.464,1.7c-.524.075-.709.93-.915.642-.559-.781-1.527-.694-2.143-1.269-.274-.256-.157-.428.008-.648.3-.4.564-.2.877,0,.662.426,1.146.469.989-.564" transform="translate(-17.679 -82.025)" fill="#f40f34"/>
        <path id="Path_74635" data-name="Path 74635" d="M14.038,156.465c.128.669-.164.881-.844.887-.879.008-.645-.579-.695-1.056-.063-.6.147-.818.784-.831.8-.017.815.422.755,1" transform="translate(-9.259 -115.252)" fill="#f40f34"/>
        <path id="Path_74636" data-name="Path 74636" d="M25.372,156.339c.034.562.067,1.028-.738,1.023-.753,0-.819-.389-.8-.967.014-.5-.012-.908.707-.92.691-.011.943.232.833.864" transform="translate(-17.666 -115.26)" fill="#f40f34"/>
        <path id="Path_74637" data-name="Path 74637" d="M36.221,155.518c.848-.126.714.462.758.977.058.693-.243.877-.894.874-.88,0-.606-.62-.66-1.078-.072-.612.177-.889.8-.773" transform="translate(-26.253 -115.273)" fill="#f40f34"/>
        <path id="Path_74638" data-name="Path 74638" d="M48.228,156.339c.1.689-.042,1.025-.783,1.016-.813-.01-.722-.5-.746-1.024-.026-.566.108-.846.766-.864.765-.021.889.332.763.872" transform="translate(-34.617 -115.253)" fill="#f40f34"/>
        <path id="Path_74639" data-name="Path 74639" d="M14.042,175.8c.059.656.038,1.083-.74,1.09-.752.007-.812-.369-.8-.947.012-.537-.034-1,.758-.985.705.016.927.3.78.841" transform="translate(-9.269 -129.703)" fill="#f40f34"/>
        <path id="Path_74640" data-name="Path 74640" d="M36.972,175.91c.074.6-.036.975-.79.983-.83.009-.733-.5-.749-1.019s.025-.908.729-.91c.72,0,.909.325.81.946" transform="translate(-26.266 -129.708)" fill="#f40f34"/>
        <path id="Path_74641" data-name="Path 74641" d="M48.241,175.948c.084.607-.063.951-.805.942-.829-.01-.705-.532-.736-1.044-.034-.568.114-.865.768-.883.776-.022.838.4.773.986" transform="translate(-34.617 -129.706)" fill="#f40f34"/>
        <path id="Path_74642" data-name="Path 74642" d="M25.373,175.806c0,.563.1,1.086-.725,1.088-.74,0-.824-.366-.827-.958s.076-.978.816-.969c.676.008.787.354.735.838" transform="translate(-17.66 -129.71)" fill="#f40f34"/>
        <path id="Path_74643" data-name="Path 74643" d="M97.252,124.516c2.284,0,4.568.017,6.851-.011.627-.008.88.118.924.836a3.336,3.336,0,0,0,3.315,3.439c.838.088,1,.413.953,1.128-.04.557-.005,1.12-.008,1.68a8.931,8.931,0,0,1-.057,2.315c-.272.96-1.33.37-1.988.71a3.517,3.517,0,0,0-2.212,3.076c-.027.752-.182,1.049-1.01,1.042-4.61-.039-9.221-.023-13.832-.013-.569,0-.922-.02-.981-.789a3.378,3.378,0,0,0-3.391-3.515c-.648-.071-.915-.225-.893-.9.041-1.248.033-2.5,0-3.749-.015-.623.152-.876.845-.966,2.306-.3,3.211-1.244,3.437-3.6.071-.743.452-.682.933-.681q3.555,0,7.11,0m-.113,1.551c-1.81,0-3.62.02-5.429-.011-.633-.011-1,.1-1.208.808a4.457,4.457,0,0,1-3.138,3.167c-.963.268-.906.854-.888,1.548.017.666-.142,1.3.852,1.576a4.471,4.471,0,0,1,3.159,3.15c.226.759.617.876,1.3.871q5.364-.04,10.729,0c.647,0,1-.139,1.2-.822a4.483,4.483,0,0,1,3.129-3.179c.969-.277.911-.85.9-1.544-.013-.666.147-1.3-.842-1.578a4.446,4.446,0,0,1-3.161-3.145c-.229-.772-.638-.865-1.308-.853-1.766.033-3.533.011-5.3.011" transform="translate(-62.957 -92.3)" fill="#f40f34"/>
        <path id="Path_74644" data-name="Path 74644" d="M116.048,144.817a3.628,3.628,0,0,1-3.421-2.118c-.317-.64-.592-1.1-1.392-.964-.523.087-.768-.127-.77-.71,0-.607.2-.909.815-.818.723.108,1.031-.239,1.325-.878a3.819,3.819,0,0,1,6.893.017c.3.656.637.956,1.34.86.629-.087.8.231.8.827s-.259.787-.776.7c-.795-.13-1.076.31-1.4.958a3.627,3.627,0,0,1-3.422,2.124m-.054-6.117a2.257,2.257,0,0,0-2.226,2.341,2.278,2.278,0,1,0,2.226-2.341" transform="translate(-81.892 -101.685)" fill="#f40f34"/>
        <path id="Path_74645" data-name="Path 74645" d="M127.871,147.941c.184-.552.782.255.933-.32.142-.54-.364-.588-.635-.822a.732.732,0,0,1-.1-1.136,1.1,1.1,0,0,1,1.825-.021c-.5.334-1.54.564-.186,1.212a.712.712,0,0,1,.287,1.1c-.3.4-.683.871-1.337.492-.275-.16-.668-.137-.786-.5" transform="translate(-94.775 -107.619)" fill="#f40f34"/>
      </g>
    </g>
  </g>
</svg>
