<svg xmlns="http://www.w3.org/2000/svg" xmlns:xlink="http://www.w3.org/1999/xlink" width="74" height="74" viewBox="0 0 74 74">
  <defs>
    <clipPath id="clip-path">
      <rect id="Rectangle_14529" data-name="Rectangle 14529" width="55.221" height="45.809" fill="#f40f34"/>
    </clipPath>
  </defs>
  <g id="Group_51931" data-name="Group 51931" transform="translate(10576 -6607)">
    <circle id="Ellipse_491" data-name="Ellipse 491" cx="37" cy="37" r="37" transform="translate(-10576 6607)" fill="#e8e8e8"/>
    <g id="Group_51740" data-name="Group 51740" transform="translate(-10563 6619)">
      <path id="Path_74598" data-name="Path 74598" d="M60.079,33.744H66.75v-6.67h4.8v6.67h6.671v4.8H71.551v6.672h-4.8V38.545H60.079Zm4.943-8.4v6.672H58.35v8.257h6.672v6.672h8.258V40.274H79.95V32.017H73.279V25.345Z" transform="translate(-24.73 -10.742)" fill="#f40f34"/>
      <g id="Group_50319" data-name="Group 50319" transform="translate(0 0)">
        <g id="Group_50318" data-name="Group 50318" clip-path="url(#clip-path)">
          <path id="Path_74599" data-name="Path 74599" d="M25.593,31.729a3.1,3.1,0,0,0,1.221.589c3.759.848,5.553,3.7,5.959,7.119a13.24,13.24,0,0,1-.1,3.493,1.56,1.56,0,0,1-.959,1.272,11.283,11.283,0,0,1-3.137.83,80.686,80.686,0,0,1-12.8.775,77.12,77.12,0,0,1-11.518-.774,13.894,13.894,0,0,1-2.823-.688,1.806,1.806,0,0,1-1.3-1.567,10.468,10.468,0,0,1,1.506-7.656,6.855,6.855,0,0,1,4.1-2.729,3.892,3.892,0,0,0,1.478-.643c-.085-.211-.289-.225-.441-.3A9.429,9.429,0,0,1,1.634,20.586Q3.312,13.808,5.122,7.063A9.444,9.444,0,0,1,14.351.03c1.727,0,3.459-.1,5.182.056a9.465,9.465,0,0,1,8.318,7.089q1.719,6.641,3.424,13.285a9.485,9.485,0,0,1-5.283,11.066c-.116.054-.228.115-.4.2M16.687,1.489H14.464A8.082,8.082,0,0,0,6.447,7.7Q4.756,14.242,3.076,20.788A8.039,8.039,0,0,0,8.02,30.4a.508.508,0,0,0,.748-.25A13.111,13.111,0,0,0,10.278,26a.851.851,0,0,0-.257-.868,12.122,12.122,0,0,1-3.193-6.551c-.115-.663.055-.892.684-1.1.844-.277,1.691-.547,2.522-.857a26.813,26.813,0,0,0,6.636-3.331,4.889,4.889,0,0,0,1.771-2.013c.148-.357.318-.67.749-.673.449,0,.631.319.8.688a15.822,15.822,0,0,0,3.2,4.884A4.564,4.564,0,0,0,25.4,17.5c.647.144.816.407.705,1.056a12.309,12.309,0,0,1-3.38,6.778.483.483,0,0,0-.194.468,12.636,12.636,0,0,0,1.6,4.428.449.449,0,0,0,.638.222,8,8,0,0,0,4.091-3.266,8.2,8.2,0,0,0,.9-6.779c-1.159-4.337-2.173-8.715-3.4-13.033a7.744,7.744,0,0,0-6.718-5.809,23.121,23.121,0,0,0-2.957-.074m-.694,42.867a90.112,90.112,0,0,0,11.315-.6,18.858,18.858,0,0,0,3.38-.676.779.779,0,0,0,.607-.723,10.283,10.283,0,0,0-.155-3.824,6.06,6.06,0,0,0-3.455-4.411.761.761,0,0,0-.888.1,16.4,16.4,0,0,1-9.145,3.3,17.063,17.063,0,0,1-11.73-3.386.564.564,0,0,0-.631-.073,5.466,5.466,0,0,0-2.538,2.042,8.934,8.934,0,0,0-1.22,6.108.92.92,0,0,0,.771.913,19.22,19.22,0,0,0,2.605.539,84.477,84.477,0,0,0,11.084.69m3.149-31.393a15.728,15.728,0,0,1-5.273,3.651A39.286,39.286,0,0,1,8.82,18.59c-.29.092-.5.165-.4.566a10.86,10.86,0,0,0,3.018,5.339,7.005,7.005,0,0,0,8.208,1.289,9.714,9.714,0,0,0,4.877-6.733c.061-.242-.048-.316-.238-.394A6.874,6.874,0,0,1,22,17.051a15.156,15.156,0,0,1-2.288-3.083c-.188-.324-.37-.651-.571-1.006m6.276,20.476c-.053-.065-.075-.114-.114-.135A7.731,7.731,0,0,1,22.03,29.3a13.8,13.8,0,0,1-.735-2.35c-.066-.3-.164-.342-.421-.175a7.282,7.282,0,0,1-1.461.71,8.229,8.229,0,0,1-7.341-.706c-.373-.22-.454-.148-.545.244a15.393,15.393,0,0,1-.577,1.935,7.926,7.926,0,0,1-3.008,4.1c-.569.368-.58.381-.007.718A16.452,16.452,0,0,0,21.2,35.421a13.864,13.864,0,0,0,4.222-1.983" transform="translate(0 0)" fill="#f40f34"/>
        </g>
      </g>
    </g>
  </g>
</svg>
