<svg xmlns="http://www.w3.org/2000/svg" width="74" height="74" viewBox="0 0 74 74">
  <g id="Group_52326" data-name="Group 52326" transform="translate(-685 -15170)">
    <circle id="Ellipse_489" data-name="Ellipse 489" cx="37" cy="37" r="37" transform="translate(685 15170)" fill="#e8e8e8"/>
    <g id="Group_50325" data-name="Group 50325" transform="translate(800.726 15227.12)">
      <g id="Group_50326" data-name="Group 50326" transform="translate(-105.326 -45.51)">
        <path id="Path_74607" data-name="Path 74607" d="M77.691,1a10.258,10.258,0,0,1,1.294.4,4.151,4.151,0,0,1-.535,7.742,4.153,4.153,0,0,1-4.884-5.935,4,4,0,0,1,3.007-2.135A.488.488,0,0,0,76.825,1Z" transform="translate(-48.227 -1)" fill="none" stroke="#f40f34" stroke-width="2"/>
        <path id="Path_74608" data-name="Path 74608" d="M43.876,31.121a11.342,11.342,0,0,0,1.788-4.044c.037-.222.063-.3.3-.177a5.033,5.033,0,0,1,.907.553,2.31,2.31,0,0,1,.718,2.781Q45.5,35.388,43.412,40.539c-.111.273-.057.374.192.5,1.56.8,3.129,1.586,4.658,2.441a4.3,4.3,0,0,1,2.291,3.883c.04,2.376.016,4.753,0,7.129a2.485,2.485,0,0,1-4.969-.034q-.016-3.231,0-6.462a.433.433,0,0,0-.278-.455c-2.992-1.557-5.985-3.113-8.966-4.691a4.507,4.507,0,0,1-2.1-5.827c.978-2.441,1.94-4.889,2.921-7.328.108-.268.055-.315-.214-.313q-1.916.015-3.831,0a.364.364,0,0,0-.395.255c-.882,1.963-1.782,3.919-2.666,5.882a2.178,2.178,0,0,1-1.189,1.234,2.046,2.046,0,0,1-2.266-.481,2.023,2.023,0,0,1-.413-2.249c.612-1.367,1.239-2.728,1.86-4.091q.476-1.045.951-2.091a4.094,4.094,0,0,1,3.945-2.606c2.52-.022,5.041-.005,7.562,0a3.077,3.077,0,0,1,.947.166c.643.208,1.28.441,1.932.62a.68.68,0,0,1,.535.623,10.064,10.064,0,0,1,.122,2.222C44.013,29.615,43.939,30.363,43.876,31.121Z" transform="translate(-17.393 -16.876)" fill="none" stroke="#f40f34" stroke-width="2"/>
        <path id="Path_74609" data-name="Path 74609" d="M95.256,108.069H84.5a1.7,1.7,0,0,1-1.709-1.715c0-.5-.006-1,0-1.5a1.669,1.669,0,0,1,1.647-1.742c1.008-.047,2.02-.019,3.031-.021,1.133,0,2.265-.007,3.4,0,.229,0,.278-.075.276-.287-.009-.933,0-1.866,0-2.8a1.735,1.735,0,0,1,1.942-1.925c2.021,0,4.042-.006,6.063.007.28,0,.351-.077.346-.348-.018-.944-.019-1.888-.009-2.832a1.72,1.72,0,0,1,1.839-1.831q2.349-.006,4.7,0a1.681,1.681,0,0,1,1.776,1.779q.01,5.647.007,11.295a1.725,1.725,0,0,1-1.916,1.912H95.256Z" transform="translate(-54.598 -61.345)" fill="none" stroke="#f40f34" stroke-width="2"/>
        <path id="Path_74610" data-name="Path 74610" d="M13.884,64.161a1.655,1.655,0,0,1-.2.838c-.723,1.386-1.437,2.778-2.177,4.155a2,2,0,0,1-2.742.841q-3.354-1.736-6.693-3.5a2.031,2.031,0,0,1-.84-2.727c.683-1.32,1.381-2.631,2.065-3.951a2.061,2.061,0,0,1,2.032-1.23,2.182,2.182,0,0,1,.946.292q3.227,1.69,6.453,3.383A2.024,2.024,0,0,1,13.884,64.161Z" transform="translate(-1 -38.738)" fill="none" stroke="#f40f34" stroke-width="2"/>
        <path id="Path_74611" data-name="Path 74611" d="M49.1,86.376c0,.833.022,1.666-.006,2.5a4.453,4.453,0,0,1-.933,2.59c-1.516,2-3.043,3.987-4.561,5.982a2.493,2.493,0,0,1-3.338.571,2.4,2.4,0,0,1-.757-3.357c.79-1.152,1.669-2.242,2.514-3.355.624-.822,1.256-1.638,1.886-2.455a1.072,1.072,0,0,0,.257-.7c-.019-2.265-.024-4.53-.033-6.794a1.229,1.229,0,0,0,0-.133c-.033-.27.038-.333.3-.194,1.1.586,2.2,1.155,3.3,1.731.393.206.78.423,1.179.617a.343.343,0,0,1,.212.364c-.007.877,0,1.754,0,2.631Z" transform="translate(-25.976 -53.402)" fill="none" stroke="#f40f34" stroke-width="2"/>
        <path id="Path_74612" data-name="Path 74612" d="M90.023,40.834c.951,1.421,1.871,2.793,2.79,4.167.253.378.511.753.747,1.142.11.18.258.175.428.174,1.721,0,3.442-.012,5.163-.007a2.046,2.046,0,0,1,2.006,1.464,2.084,2.084,0,0,1-.768,2.28,1.821,1.821,0,0,1-1.115.382c-2,0-4,.036-5.995-.027a3.765,3.765,0,0,1-3.04-1.794c-.641-.933-1.255-1.885-1.891-2.821a.589.589,0,0,1-.077-.633C88.861,43.74,89.429,42.309,90.023,40.834Z" transform="translate(-58.154 -27.105)" fill="none" stroke="#f40f34" stroke-width="2"/>
      </g>
    </g>
  </g>
</svg>
