<svg xmlns="http://www.w3.org/2000/svg" width="74" height="74" viewBox="0 0 74 74">
  <g id="Group_51928" data-name="Group 51928" transform="translate(11019 -6281)">
    <circle id="Ellipse_487" data-name="Ellipse 487" cx="37" cy="37" r="37" transform="translate(-11019 6281)" fill="#e8e8e8"/>
    <g id="Group_51738" data-name="Group 51738" transform="translate(-11009.18 6290.218)">
      <g id="Group_50314" data-name="Group 50314" transform="translate(4.153 4.152)">
        <path id="Path_74586" data-name="Path 74586" d="M233.407,231.184l9.114-9.038a2.173,2.173,0,0,1,3.073,3.073l-9.114,9.038" transform="translate(-211.401 -200.676)" fill="none" stroke="#f40f34" stroke-linecap="round" stroke-linejoin="round" stroke-width="2"/>
        <path id="Path_74587" data-name="Path 74587" d="M155.218,223.44l11.694-11.694a2.173,2.173,0,0,1,3.073,3.073l-7.066,6.989" transform="translate(-140.914 -191.3)" fill="none" stroke="#f40f34" stroke-linecap="round" stroke-linejoin="round" stroke-width="2"/>
        <path id="Path_74588" data-name="Path 74588" d="M264.605,281.133l7.066-6.989a2.173,2.173,0,1,1,3.073,3.073l-7.066,6.989" transform="translate(-239.526 -247.552)" fill="none" stroke="#f40f34" stroke-linecap="round" stroke-linejoin="round" stroke-width="2"/>
        <path id="Path_74589" data-name="Path 74589" d="M84.942,251.947l3.132-3.055a2.209,2.209,0,0,1,2.761-.33,2.176,2.176,0,0,1,.354,3.362l-6.163,6.163-5.354,5.354c-3.157,3.157-8.084,3.972-11.744.312L64.573,260.4a8.123,8.123,0,0,1-2.025-9.154l4.367-10.7c.663-1.49,2.117-3.275,3.779-2.719a2.569,2.569,0,0,1,1.609,3.318l-1.209,6.287" transform="translate(-56.79 -215.292)" fill="none" stroke="#f40f34" stroke-linecap="round" stroke-linejoin="round" stroke-width="2"/>
        <path id="Path_74590" data-name="Path 74590" d="M187.546,113.772l8.519-8.558a2.173,2.173,0,0,1,3.073,3.073l-8.519,8.558" transform="translate(-170.057 -95.262)" fill="none" stroke="#f40f34" stroke-linecap="round" stroke-linejoin="round" stroke-width="2"/>
        <path id="Path_74591" data-name="Path 74591" d="M103.31,106.509,115,94.815a2.173,2.173,0,0,1,3.073,3.073l-6.47,6.51" transform="translate(-94.119 -85.887)" fill="none" stroke="#f40f34" stroke-linecap="round" stroke-linejoin="round" stroke-width="2"/>
        <path id="Path_74592" data-name="Path 74592" d="M218.745,163.722l6.47-6.51a2.173,2.173,0,0,1,3.073,3.073l-1.8,1.8" transform="translate(-198.183 -142.138)" fill="none" stroke="#f40f34" stroke-linecap="round" stroke-linejoin="round" stroke-width="2"/>
        <path id="Path_74593" data-name="Path 74593" d="M15.556,146.331l-2.886-2.886a8.13,8.13,0,0,1-2.028-9.15l4.369-10.7c.661-1.5,2.115-3.28,3.778-2.724A2.575,2.575,0,0,1,20.4,124.2l-1.211,6.287" transform="translate(-10 -109.859)" fill="none" stroke="#f40f34" stroke-linecap="round" stroke-linejoin="round" stroke-width="2"/>
        <path id="Path_74594" data-name="Path 74594" d="M374.81,18.261c0-2.543-4.5-8.262-4.5-8.262s-4.5,5.719-4.5,8.262a4.5,4.5,0,1,0,9.007,0Z" transform="translate(-330.756 -9.999)" fill="none" stroke="#f40f34" stroke-linecap="round" stroke-linejoin="round" stroke-width="2"/>
      </g>
    </g>
  </g>
</svg>
